<svg width="24" height="24" viewBox="0 0 24 24" fill="none" xmlns="http://www.w3.org/2000/svg">
<circle cx="12" cy="8" r="3" stroke="white" stroke-width="2" stroke-linecap="round"/>
<path d="M15.2679 8C15.5332 7.54063 15.97 7.20543 16.4824 7.06815C16.9947 6.93086 17.5406 7.00273 18 7.26795C18.4594 7.53317 18.7946 7.97 18.9319 8.48236C19.0691 8.99472 18.9973 9.54063 18.7321 10C18.4668 10.4594 18.03 10.7946 17.5176 10.9319C17.0053 11.0691 16.4594 10.9973 16 10.7321C15.5406 10.4668 15.2054 10.03 15.0681 9.51764C14.9309 9.00528 15.0027 8.45937 15.2679 8L15.2679 8Z" stroke="white" stroke-width="2"/>
<path d="M5.26795 8C5.53317 7.54063 5.97 7.20543 6.48236 7.06815C6.99472 6.93086 7.54063 7.00273 8 7.26795C8.45937 7.53317 8.79457 7.97 8.93185 8.48236C9.06914 8.99472 8.99727 9.54063 8.73205 10C8.46683 10.4594 8.03 10.7946 7.51764 10.9319C7.00528 11.0691 6.45937 10.9973 6 10.7321C5.54063 10.4668 5.20543 10.03 5.06815 9.51764C4.93086 9.00528 5.00273 8.45937 5.26795 8L5.26795 8Z" stroke="white" stroke-width="2"/>
<path d="M16.9996 14V13H16.9995L16.9996 14ZM20.7203 16.9043L21.6628 16.5702L21.6627 16.57L20.7203 16.9043ZM16.8814 18L15.9011 18.1974L16.0627 19H16.8814V18ZM14.7828 14.7129L14.1779 13.9165L13.0222 14.7943L14.2541 15.5617L14.7828 14.7129ZM16.9996 14V15C18.6413 15 19.4028 16.1814 19.7778 17.2386L20.7203 16.9043L21.6627 16.57C21.1977 15.2588 19.948 13 16.9996 13V14ZM20.7203 16.9043L19.7777 17.2384C19.7707 17.2184 19.7642 17.1807 19.7725 17.135C19.7804 17.0917 19.7983 17.059 19.8152 17.038C19.8472 16.9981 19.8736 17 19.8668 17V18V19C21.0118 19 22.1414 17.9204 21.6628 16.5702L20.7203 16.9043ZM19.8668 18V17H16.8814V18V19H19.8668V18ZM16.8814 18L17.8617 17.8026C17.6438 16.7205 17.0374 14.9392 15.3115 13.8641L14.7828 14.7129L14.2541 15.5617C15.292 16.2083 15.7271 17.3334 15.9011 18.1974L16.8814 18ZM14.7828 14.7129L15.3876 15.5092C15.7741 15.2157 16.2845 15.0001 16.9997 15L16.9996 14L16.9995 13C15.8353 13.0001 14.9025 13.3662 14.1779 13.9165L14.7828 14.7129Z" fill="white"/>
<path d="M7.00034 14L7.0004 13H7.00034V14ZM9.21616 14.7129L9.74506 15.5616L10.9768 14.7939L9.82079 13.9164L9.21616 14.7129ZM7.1185 18V19H7.93718L8.09881 18.1974L7.1185 18ZM3.27963 16.9043L2.33716 16.57L2.33709 16.5702L3.27963 16.9043ZM7.00034 14L7.00027 15C7.71467 15 8.2246 15.2157 8.61153 15.5094L9.21616 14.7129L9.82079 13.9164C9.09677 13.3668 8.16472 13.0001 7.0004 13L7.00034 14ZM9.21616 14.7129L8.68725 13.8642C6.96194 14.9394 6.35602 16.721 6.13818 17.8026L7.1185 18L8.09881 18.1974C8.27286 17.3333 8.70762 16.2081 9.74506 15.5616L9.21616 14.7129ZM7.1185 18V17H4.13315V18V19H7.1185V18ZM4.13315 18V17C4.12633 17 4.15272 16.9981 4.18478 17.038C4.20162 17.0589 4.21949 17.0917 4.22739 17.135C4.23574 17.1807 4.22927 17.2184 4.22218 17.2384L3.27963 16.9043L2.33709 16.5702C1.85854 17.9203 2.98804 19 4.13315 19V18ZM3.27963 16.9043L4.2221 17.2386C4.5971 16.1814 5.35866 15 7.00034 15V14V13C4.05191 13 2.80226 15.2588 2.33716 16.57L3.27963 16.9043Z" fill="white"/>
<path d="M12 14C15.5715 14 16.5919 16.5512 16.8834 18.0089C16.9917 18.5504 16.5523 19 16 19H8C7.44772 19 7.00829 18.5504 7.11659 18.0089C7.4081 16.5512 8.42846 14 12 14Z" stroke="white" stroke-width="2" stroke-linecap="round"/>
</svg>
